<svg width="40" height="40" viewBox="0 0 40 40" fill="none" xmlns="http://www.w3.org/2000/svg">
<g id="fluent:eye-48-filled">
<path id="Vector" d="M29.5975 21.3058C29.6557 21.4877 29.7834 21.639 29.9527 21.7266C30.1219 21.8142 30.3188 21.8309 30.5003 21.7731C30.8741 21.6519 31.0869 21.2481 30.9661 20.8673L30.9655 20.8656C30.9144 20.7115 28.034 12 19.4994 12C10.9665 12 8.08558 20.7115 8.03498 20.8656L8.03441 20.8673C7.91365 21.2481 8.12066 21.6519 8.50018 21.7731C8.8797 21.8942 9.28223 21.6865 9.40298 21.3058C9.50649 20.9827 11.9964 13.4423 19.5005 13.4423C27.0047 13.4423 29.494 20.9827 29.5975 21.3058ZM19.5 27C20.8725 27 22.1889 26.453 23.1594 25.4792C24.13 24.5055 24.6753 23.1848 24.6753 21.8077C24.6753 20.4306 24.13 19.1099 23.1594 18.1362C22.1889 17.1624 20.8725 16.6154 19.5 16.6154C18.1274 16.6154 16.811 17.1624 15.8405 18.1362C14.8699 19.1099 14.3247 20.4306 14.3247 21.8077C14.3247 23.1848 14.8699 24.5055 15.8405 25.4792C16.811 26.453 18.1274 27 19.5 27Z" fill="black"/>
</g>
</svg>
