<svg width="47" height="47" viewBox="0 0 47 47" fill="none" xmlns="http://www.w3.org/2000/svg">
<g id="fluent-mdl2:photo-2-add">
<path id="Vector" d="M32.3125 13.2188C32.3125 12.821 32.4578 12.4767 32.7485 12.186C33.0392 11.8953 33.3835 11.75 33.7812 11.75C34.179 11.75 34.5233 11.8953 34.814 12.186C35.1047 12.4767 35.25 12.821 35.25 13.2188C35.25 13.6165 35.1047 13.9608 34.814 14.2515C34.5233 14.5422 34.179 14.6875 33.7812 14.6875C33.3835 14.6875 33.0392 14.5422 32.7485 14.2515C32.4578 13.9608 32.3125 13.6165 32.3125 13.2188ZM46 35.25C46.5523 35.25 47 35.6977 47 36.25V37.1875C47 37.7398 46.5523 38.1875 46 38.1875H42.125C41.5727 38.1875 41.125 38.6352 41.125 39.1875V43.0625C41.125 43.6148 40.6773 44.0625 40.125 44.0625H39.1875C38.6352 44.0625 38.1875 43.6148 38.1875 43.0625V39.1875C38.1875 38.6352 37.7398 38.1875 37.1875 38.1875H33.3125C32.7602 38.1875 32.3125 37.7398 32.3125 37.1875V36.25C32.3125 35.6977 32.7602 35.25 33.3125 35.25H37.1875C37.7398 35.25 38.1875 34.8023 38.1875 34.25V30.375C38.1875 29.8227 38.6352 29.375 39.1875 29.375H40.125C40.6773 29.375 41.125 29.8227 41.125 30.375V34.25C41.125 34.8023 41.5727 35.25 42.125 35.25H46ZM21.8673 27.1982C21.4764 27.5891 21.4768 28.223 21.8683 28.6134L29.0811 35.8061C29.2693 35.9937 29.375 36.2485 29.375 36.5142V37.1875C29.375 37.7398 28.9273 38.1875 28.375 38.1875H1C0.447715 38.1875 0 37.7398 0 37.1875V6.875C0 6.32272 0.447715 5.875 1 5.875H40.125C40.6773 5.875 41.125 6.32272 41.125 6.875V25.4375C41.125 25.9898 40.6773 26.4375 40.125 26.4375H39.1875C38.6352 26.4375 38.1875 25.9898 38.1875 25.4375V9.8125C38.1875 9.26022 37.7398 8.8125 37.1875 8.8125H3.9375C3.38521 8.8125 2.9375 9.26022 2.9375 9.8125V16.0688C2.9375 16.9584 4.01204 17.4052 4.64276 16.7777L6.63665 14.7942C7.02747 14.4055 7.65921 14.4063 8.04901 14.7961L18.3866 25.1337C18.7772 25.5242 19.4103 25.5242 19.8009 25.1337L24.2624 20.6721C24.6526 20.2819 25.2852 20.2816 25.6759 20.6713L34.9563 29.9311C35.1443 30.1187 35.25 30.3734 35.25 30.639V31.3125C35.25 31.8648 34.8023 32.3125 34.25 32.3125H33.5767C33.311 32.3125 33.0562 32.2068 32.8686 32.0186L25.6759 24.8058C25.2855 24.4143 24.6516 24.4139 24.2607 24.8048L21.8673 27.1982ZM8.0527 18.9316C7.66153 18.5399 7.02658 18.5405 6.63617 18.9329L3.22856 22.3583C3.04215 22.5457 2.9375 22.7993 2.9375 23.0636V34.25C2.9375 34.8023 3.38522 35.25 3.9375 35.25H21.9372C22.8278 35.25 23.2741 34.1735 22.6448 33.5434L8.0527 18.9316Z" fill="white"/>
</g>
</svg>
