<svg width="408" height="219" viewBox="0 0 408 219" fill="none" xmlns="http://www.w3.org/2000/svg">
<path fill-rule="evenodd" clip-rule="evenodd" d="M149.974 20.333C145.971 22.5521 145.445 24.835 145.411 40.1796L145.38 54.537L140.69 59.2862L136 64.0346H140.69H145.38V78.4657C145.38 99.215 146.005 99.9999 162.506 99.9999H172.354V95.5043V91.0086H163.362H154.371V84.2651V77.5216H157.454C161.372 77.5216 163.362 75.5309 163.362 71.6134C163.362 68.9241 163.076 68.5302 161.115 68.5302C159.316 68.5302 158.867 68.9798 158.867 70.7781C158.867 72.5763 158.417 73.0259 156.619 73.0259H154.371V50.5475V28.0692H176.849H199.328V64.0346V99.9999H235.293H271.259V95.5043V91.0086H239.789H208.319V58.682C208.319 23.9116 208.17 22.6744 203.693 20.3591C200.22 18.5626 153.209 18.5402 149.974 20.333ZM217.311 37.0605V41.5562H221.806H226.302V37.0605V32.5649H221.806H217.311V37.0605ZM235.293 37.0605V41.5562H253.276H271.259V37.0605V32.5649H253.276H235.293V37.0605ZM160.279 47.4644C157.553 50.1915 159.527 55.0432 163.362 55.0432C165.508 55.0432 167.858 52.6929 167.858 50.5475C167.858 48.4022 165.508 46.0519 163.362 46.0519C162.444 46.0519 161.057 46.6876 160.279 47.4644ZM217.311 55.0432V59.5389H221.806H226.302V55.0432V50.5475H221.806H217.311V55.0432ZM235.293 55.0432V59.5389H253.276H271.259V55.0432V50.5475H253.276H235.293V55.0432ZM217.311 73.0259V77.5216H221.806H226.302V73.0259V68.5302H221.806H217.311V73.0259ZM235.293 73.0259V77.5216H253.276H271.259V73.0259V68.5302H253.276H235.293V73.0259Z" fill="black"/>
<path d="M76.1501 140.939V133H30V140.939H49.3337V186.842H57.032V140.939H76.1501ZM103.685 174.43C95.915 174.43 90.828 176.453 88.4243 177.674L97.3684 160.575L104.707 174.43H103.685ZM93.5113 153.287L75.4952 186.842H83.3373L83.5609 186.406C84.7907 184.82 94.4616 181.211 103.757 181.211H108.269L111.248 186.842H119.457L99.1093 148.592H91.0436L93.5113 153.287ZM159.937 152.922C154.411 149.171 149.252 148.235 143.806 148.235C135.445 148.235 128.25 152.708 128.25 159.489C128.25 167.642 134.79 170.608 143.806 170.608C151.648 170.608 155.433 171.329 155.433 174.716C155.433 178.618 150.634 180.783 143.806 180.783C137.114 180.783 134.359 177.024 132.099 174.645L126.724 180.061C130.869 184.891 137.266 188 143.806 188C154.555 188 162.844 183.67 162.844 174.716C162.844 168.657 160.369 163.24 144.309 163.24C136.97 163.24 136.1 161.725 136.1 159.489C136.1 157.324 140.093 155.444 143.726 155.444C148.086 155.444 152.015 156.317 154.922 158.696L159.937 152.922ZM193.366 172.408L198.597 180.926C203.029 186.335 205.648 186.842 209.569 186.842H212.843V178.832H210.224C208.331 178.832 206.151 178.618 203.899 175.509L198.381 166.278L210.807 149.456H201.216L183.847 173.415V149.456H175.925V186.842H183.847L193.366 172.408ZM233.766 163.026C235.946 161.947 238.35 161.583 240.674 161.583C243.868 161.583 253.387 163.169 258.331 163.169C260.583 163.169 263.346 162.812 265.67 161.797V186.842H273.592V133H265.67V153.858C263.346 154.873 260.583 155.23 258.331 155.23C253.387 155.23 243.868 153.644 240.674 153.644C238.35 153.644 235.946 154.001 233.766 155.087V133H225.924V186.842H233.766V163.026ZM307.819 188C318.288 188 325.915 183.162 325.915 172.194V149.456H318.432V172.194C318.432 178.547 314.144 180.49 307.747 180.49C301.35 180.49 297.062 178.547 297.062 172.194V149.456H289.579V172.194C289.579 183.162 297.214 188 307.675 188H307.819ZM348.011 156.888H363.632C365.884 156.888 367.409 157.974 367.409 159.996C367.409 162.162 366.251 163.24 363.632 163.24H359.783C355.422 163.24 351.278 163.534 348.011 165.405V156.888ZM348.011 172.987C351.278 171.25 352.875 170.822 359.783 170.822H363.632C367.776 170.822 369.517 172.265 369.517 175.009C369.517 178.618 366.682 179.34 363.632 179.34H348.011V172.987ZM377 175.152C377 171.472 375.403 168.078 372.568 166.42C374.389 164.755 375.043 162.447 375.043 159.996C375.043 153.715 369.813 149.456 363.632 149.456H340.521V186.842H363.632C371.913 186.842 377 182.512 377 175.152Z" fill="black"/>
</svg>
