<svg width="30" height="30" viewBox="0 0 30 30" fill="none" xmlns="http://www.w3.org/2000/svg">
<g id="fluent:person-lock-24-regular">
<path id="Vector" d="M17.5 17.5001H5.31628C4.9469 17.4999 4.5811 17.5726 4.23979 17.7139C3.89849 17.8551 3.58838 18.0623 3.32718 18.3235C3.06598 18.5847 2.85882 18.8948 2.71754 19.2361C2.57626 19.5774 2.50362 19.9432 2.50378 20.3126V21.0338C2.50378 22.1488 2.90378 23.2288 3.62878 24.0776C5.58503 26.3701 8.56878 27.5026 12.5 27.5026C13.3938 27.5026 14.2375 27.4438 15.0325 27.3263C15.011 27.1773 15.0001 27.0269 15 26.8763V25.4338C14.2325 25.5626 13.4 25.6263 12.5 25.6263C9.07753 25.6263 6.62003 24.6951 5.05378 22.8601C4.61853 22.3511 4.37918 21.7035 4.37878 21.0338V20.3113C4.37912 20.0629 4.47803 19.8248 4.65381 19.6492C4.82959 19.4737 5.06786 19.3751 5.31628 19.3751H15.26C15.4609 18.9156 15.7692 18.5112 16.1591 18.1958C16.5489 17.8803 17.0088 17.6632 17.5 17.5626V17.5001ZM12.5 2.50635C13.3208 2.50635 14.1335 2.66801 14.8918 2.9821C15.6501 3.29619 16.3391 3.75656 16.9195 4.33693C17.4998 4.9173 17.9602 5.60629 18.2743 6.36458C18.5884 7.12286 18.75 7.93559 18.75 8.75635C18.75 9.57711 18.5884 10.3898 18.2743 11.1481C17.9602 11.9064 17.4998 12.5954 16.9195 13.1758C16.3391 13.7561 15.6501 14.2165 14.8918 14.5306C14.1335 14.8447 13.3208 15.0063 12.5 15.0063C10.8424 15.0063 9.25272 14.3479 8.08062 13.1758C6.90851 12.0037 6.25003 10.414 6.25003 8.75635C6.25003 7.09874 6.90851 5.50903 8.08062 4.33693C9.25272 3.16483 10.8424 2.50635 12.5 2.50635ZM12.5 4.38135C11.9255 4.38135 11.3566 4.49451 10.8258 4.71437C10.295 4.93424 9.8127 5.2565 9.40644 5.66276C9.00019 6.06901 8.67793 6.55131 8.45806 7.08211C8.2382 7.61291 8.12503 8.18181 8.12503 8.75635C8.12503 9.33088 8.2382 9.89979 8.45806 10.4306C8.67793 10.9614 9.00019 11.4437 9.40644 11.8499C9.8127 12.2562 10.295 12.5785 10.8258 12.7983C11.3566 13.0182 11.9255 13.1313 12.5 13.1313C13.6604 13.1313 14.7732 12.6704 15.5936 11.8499C16.4141 11.0295 16.875 9.91667 16.875 8.75635C16.875 7.59603 16.4141 6.48323 15.5936 5.66276C14.7732 4.84228 13.6604 4.38135 12.5 4.38135ZM18.75 18.7501H18.125C17.6278 18.7501 17.1508 18.9476 16.7992 19.2993C16.4476 19.6509 16.25 20.1278 16.25 20.6251V26.8751C16.25 27.3724 16.4476 27.8493 16.7992 28.2009C17.1508 28.5526 17.6278 28.7501 18.125 28.7501H25.625C26.1223 28.7501 26.5992 28.5526 26.9509 28.2009C27.3025 27.8493 27.5 27.3724 27.5 26.8751V20.6251C27.5 20.1278 27.3025 19.6509 26.9509 19.2993C26.5992 18.9476 26.1223 18.7501 25.625 18.7501H25V17.5001C25 16.6713 24.6708 15.8764 24.0847 15.2904C23.4987 14.7043 22.7038 14.3751 21.875 14.3751C21.0462 14.3751 20.2514 14.7043 19.6653 15.2904C19.0793 15.8764 18.75 16.6713 18.75 17.5001V18.7501ZM20.625 17.5001C20.625 17.1686 20.7567 16.8506 20.9911 16.6162C21.2256 16.3818 21.5435 16.2501 21.875 16.2501C22.2066 16.2501 22.5245 16.3818 22.7589 16.6162C22.9933 16.8506 23.125 17.1686 23.125 17.5001V18.7501H20.625V17.5001ZM23.125 23.7501C23.125 24.0816 22.9933 24.3996 22.7589 24.634C22.5245 24.8684 22.2066 25.0001 21.875 25.0001C21.5435 25.0001 21.2256 24.8684 20.9911 24.634C20.7567 24.3996 20.625 24.0816 20.625 23.7501C20.625 23.4186 20.7567 23.1006 20.9911 22.8662C21.2256 22.6318 21.5435 22.5001 21.875 22.5001C22.2066 22.5001 22.5245 22.6318 22.7589 22.8662C22.9933 23.1006 23.125 23.4186 23.125 23.7501Z" fill="white"/>
</g>
</svg>
